HIERARCHY
ROOT Hips
{
  OFFSET -277.901 75.6307 1588.21
  CHANNELS 6 Xposition Yposition Zposition Zrotation Xrotation Yrotation
  JOINT Spine
  {
    OFFSET 0 8 0
    CHANNELS 6 Xposition Yposition Zposition Zrotation Xrotation Yrotation
    JOINT Spine1
    {
      OFFSET 0 8 0
      CHANNELS 6 Xposition Yposition Zposition Zrotation Xrotation Yrotation
      JOINT Spine2
      {
        OFFSET 0 8 0
        CHANNELS 6 Xposition Yposition Zposition Zrotation Xrotation Yrotation
        JOINT Spine3
        {
          OFFSET 0 8 0
          CHANNELS 6 Xposition Yposition Zposition Zrotation Xrotation Yrotation
          JOINT Neck
          {
            OFFSET 0 17 0
            CHANNELS 6 Xposition Yposition Zposition Zrotation Xrotation Yrotation
            JOINT Head
            {
              OFFSET 0 10.8 0
              CHANNELS 6 Xposition Yposition Zposition Zrotation Xrotation Yrotation
              End Site
              {
                OFFSET 0 20.25 0
              }
            }
          }
          JOINT LeftShoulder
          {
            OFFSET 5 17 0
            CHANNELS 6 Xposition Yposition Zposition Zrotation Xrotation Yrotation
            JOINT LeftShoulder2
            {
              OFFSET 6.45 0 0
              CHANNELS 6 Xposition Yposition Zposition Zrotation Xrotation Yrotation
              JOINT LeftArm
              {
                OFFSET 6.45 0 0
                CHANNELS 6 Xposition Yposition Zposition Zrotation Xrotation Yrotation
                JOINT LeftForeArm
                {
                  OFFSET 0 -32.4 -2
                  CHANNELS 6 Xposition Yposition Zposition Zrotation Xrotation Yrotation
                  JOINT LeftHand
                  {
                    OFFSET 0 -25.65 2
                    CHANNELS 6 Xposition Yposition Zposition Zrotation Xrotation Yrotation
                    JOINT LeftHandThumb1
                    {
                      OFFSET -0.5 -1.5 2.65
                      CHANNELS 6 Xposition Yposition Zposition Zrotation Xrotation Yrotation
                      JOINT LeftHandThumb2
                      {
                        OFFSET 0 -3.8 3.7
                        CHANNELS 6 Xposition Yposition Zposition Zrotation Xrotation Yrotation
                        JOINT LeftHandThumb3
                        {
                          OFFSET 0 -3 2.7
                          CHANNELS 6 Xposition Yposition Zposition Zrotation Xrotation Yrotation
                          End Site
                          {
                            OFFSET 0 -2.3 1.8
                          }
                        }
                      }
                    }
                    JOINT LeftHandIndex
                    {
                      OFFSET 0 -1.9 1.6
                      CHANNELS 6 Xposition Yposition Zposition Zrotation Xrotation Yrotation
                      JOINT LeftHandIndex1
                      {
                        OFFSET 0 -8.3 1.9
                        CHANNELS 6 Xposition Yposition Zposition Zrotation Xrotation Yrotation
                        JOINT LeftHandIndex2
                        {
                          OFFSET 0 -4.5 0
                          CHANNELS 6 Xposition Yposition Zposition Zrotation Xrotation Yrotation
                          JOINT LeftHandIndex3
                          {
                            OFFSET 0 -3.4 0
                            CHANNELS 6 Xposition Yposition Zposition Zrotation Xrotation Yrotation
                            End Site
                            {
                              OFFSET 0 -2.6 0
                            }
                          }
                        }
                      }
                    }
                    JOINT LeftHandMiddle
                    {
                      OFFSET -0.25 -2.2 0.4
                      CHANNELS 6 Xposition Yposition Zposition Zrotation Xrotation Yrotation
                      JOINT LeftHandMiddle1
                      {
                        OFFSET 0 -8.3 1
                        CHANNELS 6 Xposition Yposition Zposition Zrotation Xrotation Yrotation
                        JOINT LeftHandMiddle2
                        {
                          OFFSET 0 -4.65 0
                          CHANNELS 6 Xposition Yposition Zposition Zrotation Xrotation Yrotation
                          JOINT LeftHandMiddle3
                          {
                            OFFSET 0 -3.3 0
                            CHANNELS 6 Xposition Yposition Zposition Zrotation Xrotation Yrotation
                            End Site
                            {
                              OFFSET 0 -2.7 0
                            }
                          }
                        }
                      }
                    }
                    JOINT LeftHandRing
                    {
                      OFFSET -0.5 -2.15 -0.8
                      CHANNELS 6 Xposition Yposition Zposition Zrotation Xrotation Yrotation
                      JOINT LeftHandRing1
                      {
                        OFFSET 0 -7.75 -0.2
                        CHANNELS 6 Xposition Yposition Zposition Zrotation Xrotation Yrotation
                        JOINT LeftHandRing2
                        {
                          OFFSET 0 -3.8 0
                          CHANNELS 6 Xposition Yposition Zposition Zrotation Xrotation Yrotation
                          JOINT LeftHandRing3
                          {
                            OFFSET 0 -3.4 0
                            CHANNELS 6 Xposition Yposition Zposition Zrotation Xrotation Yrotation
                            End Site
                            {
                              OFFSET 0 -2.6 0
                            }
                          }
                        }
                      }
                    }
                    JOINT LeftHandPinky
                    {
                      OFFSET -0.75 -1.75 -1.85
                      CHANNELS 6 Xposition Yposition Zposition Zrotation Xrotation Yrotation
                      JOINT LeftHandPinky1
                      {
                        OFFSET 0 -7.15 -1
                        CHANNELS 6 Xposition Yposition Zposition Zrotation Xrotation Yrotation
                        JOINT LeftHandPinky2
                        {
                          OFFSET 0 -3 0
                          CHANNELS 6 Xposition Yposition Zposition Zrotation Xrotation Yrotation
                          JOINT LeftHandPinky3
                          {
                            OFFSET 0 -2.35 0
                            CHANNELS 6 Xposition Yposition Zposition Zrotation Xrotation Yrotation
                            End Site
                            {
                              OFFSET 0 -2.1 0
                            }
                          }
                        }
                      }
                    }
                  }
                }
              }
            }
          }
          JOINT RightShoulder
          {
            OFFSET -5 17 0
            CHANNELS 6 Xposition Yposition Zposition Zrotation Xrotation Yrotation
            JOINT RightShoulder2
            {
              OFFSET -6.45 0 0
              CHANNELS 6 Xposition Yposition Zposition Zrotation Xrotation Yrotation
              JOINT RightArm
              {
                OFFSET -6.45 0 0
                CHANNELS 6 Xposition Yposition Zposition Zrotation Xrotation Yrotation
                JOINT RightForeArm
                {
                  OFFSET 0 -32.4 -2
                  CHANNELS 6 Xposition Yposition Zposition Zrotation Xrotation Yrotation
                  JOINT RightHand
                  {
                    OFFSET 0 -25.65 2
                    CHANNELS 6 Xposition Yposition Zposition Zrotation Xrotation Yrotation
                    JOINT RightHandThumb1
                    {
                      OFFSET 0.5 -1.5 2.65
                      CHANNELS 6 Xposition Yposition Zposition Zrotation Xrotation Yrotation
                      JOINT RightHandThumb2
                      {
                        OFFSET 0 -3.8 3.7
                        CHANNELS 6 Xposition Yposition Zposition Zrotation Xrotation Yrotation
                        JOINT RightHandThumb3
                        {
                          OFFSET 0 -3 2.7
                          CHANNELS 6 Xposition Yposition Zposition Zrotation Xrotation Yrotation
                          End Site
                          {
                            OFFSET 0 -2.3 1.8
                          }
                        }
                      }
                    }
                    JOINT RightHandIndex
                    {
                      OFFSET 0 -1.9 1.6
                      CHANNELS 6 Xposition Yposition Zposition Zrotation Xrotation Yrotation
                      JOINT RightHandIndex1
                      {
                        OFFSET 0 -8.3 1.9
                        CHANNELS 6 Xposition Yposition Zposition Zrotation Xrotation Yrotation
                        JOINT RightHandIndex2
                        {
                          OFFSET 0 -4.5 0
                          CHANNELS 6 Xposition Yposition Zposition Zrotation Xrotation Yrotation
                          JOINT RightHandIndex3
                          {
                            OFFSET 0 -3.4 0
                            CHANNELS 6 Xposition Yposition Zposition Zrotation Xrotation Yrotation
                            End Site
                            {
                              OFFSET 0 -2.6 0
                            }
                          }
                        }
                      }
                    }
                    JOINT RightHandMiddle
                    {
                      OFFSET 0.25 -2.2 0.4
                      CHANNELS 6 Xposition Yposition Zposition Zrotation Xrotation Yrotation
                      JOINT RightHandMiddle1
                      {
                        OFFSET 0 -8.3 1
                        CHANNELS 6 Xposition Yposition Zposition Zrotation Xrotation Yrotation
                        JOINT RightHandMiddle2
                        {
                          OFFSET 0 -4.65 0
                          CHANNELS 6 Xposition Yposition Zposition Zrotation Xrotation Yrotation
                          JOINT RightHandMiddle3
                          {
                            OFFSET 0 -3.3 0
                            CHANNELS 6 Xposition Yposition Zposition Zrotation Xrotation Yrotation
                            End Site
                            {
                              OFFSET 0 -2.7 0
                            }
                          }
                        }
                      }
                    }
                    JOINT RightHandRing
                    {
                      OFFSET 0.5 -2.15 -0.8
                      CHANNELS 6 Xposition Yposition Zposition Zrotation Xrotation Yrotation
                      JOINT RightHandRing1
                      {
                        OFFSET 0 -7.75 -0.2
                        CHANNELS 6 Xposition Yposition Zposition Zrotation Xrotation Yrotation
                        JOINT RightHandRing2
                        {
                          OFFSET 0 -3.8 0
                          CHANNELS 6 Xposition Yposition Zposition Zrotation Xrotation Yrotation
                          JOINT RightHandRing3
                          {
                            OFFSET 0 -3.4 0
                            CHANNELS 6 Xposition Yposition Zposition Zrotation Xrotation Yrotation
                            End Site
                            {
                              OFFSET 0 -2.6 0
                            }
                          }
                        }
                      }
                    }
                    JOINT RightHandPinky
                    {
                      OFFSET 0.75 -1.75 -1.85
                      CHANNELS 6 Xposition Yposition Zposition Zrotation Xrotation Yrotation
                      JOINT RightHandPinky1
                      {
                        OFFSET 0 -7.15 -1
                        CHANNELS 6 Xposition Yposition Zposition Zrotation Xrotation Yrotation
                        JOINT RightHandPinky2
                        {
                          OFFSET 0 -3 0
                          CHANNELS 6 Xposition Yposition Zposition Zrotation Xrotation Yrotation
                          JOINT RightHandPinky3
                          {
                            OFFSET 0 -2.35 0
                            CHANNELS 6 Xposition Yposition Zposition Zrotation Xrotation Yrotation
                            End Site
                            {
                              OFFSET 0 -2.1 0
                            }
                          }
                        }
                      }
                    }
                  }
                }
              }
            }
          }
        }
      }
    }
  }
  JOINT LeftUpLeg
  {
    OFFSET 8 0 0
    CHANNELS 6 Xposition Yposition Zposition Zrotation Xrotation Yrotation
    JOINT LeftLeg
    {
      OFFSET 0 -45 -1
      CHANNELS 6 Xposition Yposition Zposition Zrotation Xrotation Yrotation
      JOINT LeftFoot
      {
        OFFSET 0 -41 -2
        CHANNELS 6 Xposition Yposition Zposition Zrotation Xrotation Yrotation
        JOINT LeftToeBase
        {
          OFFSET 0 -7.5 12.5
          CHANNELS 6 Xposition Yposition Zposition Zrotation Xrotation Yrotation
          JOINT LeftFootToe
          {
            OFFSET 0 0 4
            CHANNELS 6 Xposition Yposition Zposition Zrotation Xrotation Yrotation
            End Site
            {
              OFFSET 0 0 0
            }
          }
        }
      }
    }
  }
  JOINT RightUpLeg
  {
    OFFSET -8 0 0
    CHANNELS 6 Xposition Yposition Zposition Zrotation Xrotation Yrotation
    JOINT RightLeg
    {
      OFFSET 0 -45 -1
      CHANNELS 6 Xposition Yposition Zposition Zrotation Xrotation Yrotation
      JOINT RightFoot
      {
        OFFSET 0 -41 -2
        CHANNELS 6 Xposition Yposition Zposition Zrotation Xrotation Yrotation
        JOINT RightToeBase
        {
          OFFSET 0 -7.5 12.5
          CHANNELS 6 Xposition Yposition Zposition Zrotation Xrotation Yrotation
          JOINT RightFootToe
          {
            OFFSET 0 0 4
            CHANNELS 6 Xposition Yposition Zposition Zrotation Xrotation Yrotation
            End Site
            {
              OFFSET 0 0 0
            }
          }
        }
      }
    }
  }
}
MOTION
Frames:	3
Frame Time:	0.0111111
-278.439 75.6805 1588.1 2.14842 4.05901 -179.969 5.68434e-14 8 0 10.5644 7.9054 -8.23494 5.68434e-14 8 0 2.26063 6.57393 -2.15889 5.68434e-14 8 0 1.09831 3.30343 -1.04625 0 8 0 1.09605 3.29686 -1.0441 1.13687e-13 17 2.27374e-13 5.54519 4.13206 -6.9418 5.68434e-14 10.8 0 13.7865 8.53544 -16.9355 5 17 2.27374e-13 1.18278 -0.669912 -2.46649 6.45 0 0 -0.342373 -0.735363 1.75802 6.45 0 2.27374e-13 53.7133 23.177 0.644458 5.68434e-14 -32.4 -2 -61.1704 -71.5765 -76.1183 1.13687e-13 -25.65 2 -6.45534 -17.411 -25.4699 -0.5 -1.5 2.65 -20.8339 -48.2127 127.187 0 -3.8 3.7 -0.035544 44.6783 -0.00024443 5.68434e-14 -3 2.7 0.119386 52.5742 -0.0230121 2.27374e-13 -1.9 1.6 6.36111e-15 -3.18055e-15 -1.59028e-15 -4.54747e-13 -8.3 1.9 -39.5546 10.5165 4.51238 0 -4.5 5.68434e-14 -83.2462 -0.00246216 -0.000408772 -1.13687e-13 -3.4 5.68434e-14 -72.0413 0.000677936 -0.00497415 -0.25 -2.2 0.4 6.36111e-15 -3.18055e-15 -1.59028e-15 0 -8.3 1 -51.4535 9.04433 6.41796 0 -4.65 0 -77.4788 0.00271979 -0.0020785 8.52651e-14 -3.3 5.68434e-14 -90.0002 2.19657e-14 -2.38542e-14 -0.5 -2.15 -0.8 6.36111e-15 -3.18055e-15 -1.59028e-15 -2.27374e-13 -7.75 -0.2 -82.6839 2.20455 12.2918 -4.54747e-13 -3.8 0 -13.5657 0.108459 -0.0692033 -1.13687e-13 -3.4 5.68434e-14 -90.0002 -0.000610352 -3.02153e-14 -0.75 -1.75 -1.85 6.36111e-15 -3.18055e-15 -1.59028e-15 0 -7.15 -1 -71.1223 5.8197 10.8764 0 -3 -1.42109e-13 -64.0514 0.0454241 -0.00920214 2.13163e-14 -2.35 2.84217e-14 -90.0002 3.58682e-14 -5.56597e-15 -5 17 2.27374e-13 14.2739 -3.24884 1.09254 -6.45 5.68434e-14 0 -1.76547 1.06877 -2.63647 -6.45 0 2.27374e-13 -43.0101 8.86062 -20.7155 0 -32.4 -2 124.72 -79.0915 127.716 0 -25.65 2 -32.4565 -6.17291 23.5658 0.5 -1.5 2.65 20.795 10.3475 9.38163 -1.42109e-14 -3.8 3.7 1.97036 -0.196138 -0.530838 -1.42109e-14 -3 2.7 0.184716 44.0702 -0.124399 -1.13687e-13 -1.9 1.6 -6.36111e-15 -6.36111e-15 -6.36111e-15 1.13687e-13 -8.3 1.9 24.903 4.00092 -1.1835 -2.84217e-14 -4.5 1.13687e-13 32.3169 0.00483406 -0.00833751 2.27374e-13 -3.4 -1.13687e-13 23.4766 0.000974904 -0.00568228 0.25 -2.2 0.4 -6.36111e-15 -6.36111e-15 -6.36111e-15 1.13687e-13 -8.3 1 31.4742 1.13503 -1.18557 -1.42109e-14 -4.65 -1.13687e-13 52.6322 -0.0599655 -0.00470033 2.27374e-13 -3.3 2.27374e-13 37.0177 -0.0304192 0.0273727 0.5 -2.15 -0.8 -6.36111e-15 -6.36111e-15 -6.36111e-15 0 -7.75 -0.2 35.3666 1.84557 -2.30954 -4.9738e-14 -3.8 0 87.5913 -0.0139406 -0.000586404 -2.27374e-13 -3.4 1.13687e-13 82.9499 -0.00202143 0.0324807 0.75 -1.75 -1.85 -6.36111e-15 -6.36111e-15 -6.36111e-15 0 -7.15 -1 47.2735 -5.17772 -0.460007 0 -3 0 70.7015 -0.273331 0.0359143 -2.27374e-13 -2.35 0 57.3786 -0.0990187 0.315787 8 0 -2.27374e-13 -20.681 -45.0962 -29.8669 5.68434e-14 -45 -1 -0.824051 29.1365 3.80367 1.13687e-13 -41 -2 5.2314 32.4048 -24.9765 1.13687e-13 -7.5 12.5 7.95139e-16 -8.92942 -0 -1.13687e-13 -1.77636e-15 4 -8.28631 5.83325 72.5113 -8 0 2.27374e-13 -28.6893 -43.2833 -39.4073 -1.13687e-13 -45 -1 -0.309952 33.9387 1.29169 -1.7053e-13 -41 -2 3.06314 34.3221 -11.847 -1.13687e-13 -7.5 12.5 -2.35323e-15 -13.7631 -6.54915e-15 0 8.88178e-16 4 -7.92366 8.93323 63.0894 
-278.424 75.6758 1588.38 2.14842 4.05901 -179.969 5.68434e-14 8 0 10.5364 7.92723 -8.28934 8.52651e-14 8 -2.27374e-13 2.26109 6.5806 -2.13058 0 8 2.27374e-13 1.09749 3.30344 -1.03207 0 8 0 1.09524 3.29687 -1.02994 0 17 0 5.58591 4.17827 -6.88438 5.68434e-14 10.8 0 13.8873 8.64404 -16.8137 5 17 0 1.2192 -0.720184 -2.37393 6.45 5.68434e-14 4.54747e-13 -0.369946 -0.747323 1.70186 6.45 0 2.27374e-13 53.7962 23.2132 0.416356 -5.68434e-14 -32.4 -2 -61.0152 -71.7495 -75.9736 0 -25.65 2 -6.83302 -16.4674 -25.5705 -0.5 -1.5 2.65 -20.9682 -48.1866 127.215 0 -3.8 3.7 -0.0150991 44.3575 -0.0182549 5.68434e-14 -3 2.7 0.148327 51.0617 -0.0376663 4.54747e-13 -1.9 1.6 9.54166e-15 -4.77083e-15 -3.18055e-15 -2.27374e-13 -8.3 1.9 -39.4062 10.7239 4.56988 0 -4.5 0 -83.229 -0.00246216 -0.000408772 -5.68434e-14 -3.4 2.84217e-14 -72.0055 0.000677936 -0.00488889 -0.25 -2.2 0.4 9.54166e-15 -4.77083e-15 -3.18055e-15 0 -8.3 1 -50.7098 8.88364 6.2167 -2.27374e-13 -4.65 5.68434e-14 -77.3525 0.00271979 -0.0020785 2.84217e-14 -3.3 0 -90.0002 2.64384e-14 -1.43125e-14 -0.5 -2.15 -0.8 9.54166e-15 -4.77083e-15 -3.18055e-15 -2.27374e-13 -7.75 -0.2 -81.3668 2.56577 12.1784 -2.27374e-13 -3.8 8.52651e-14 -11.0409 0.107486 -0.0849456 0 -3.4 2.84217e-14 -90.0002 -0.000610352 -3.45885e-14 -0.75 -1.75 -1.85 9.54166e-15 -4.77083e-15 -3.18055e-15 0 -7.15 -1 -67.8277 6.58395 10.3959 0 -3 -5.68434e-14 -63.0912 0.0588196 -0.00920215 1.42109e-14 -2.35 2.84217e-14 -90.0002 2.38045e-14 -8.74653e-15 -5 17 -2.27374e-13 14.3031 -3.2549 1.13061 -6.45 0 -2.27374e-13 -1.76531 1.06877 -2.64498 -6.45 5.68434e-14 0 -43.5161 8.68732 -21.0435 5.68434e-14 -32.4 -2 132.488 -78.1611 134.9 -2.84217e-14 -25.65 2 -32.3263 -5.92746 23.8942 0.5 -1.5 2.65 21.0563 10.9872 9.0847 5.68434e-14 -3.8 3.7 1.92812 -0.790205 -0.515403 2.84217e-14 -3 2.7 0.222956 44.0769 -0.153659 -1.13687e-13 -1.9 1.6 9.54166e-15 -3.18055e-15 6.36111e-15 0 -8.3 1.9 24.9817 5.06455 -1.40197 0 -4.5 1.13687e-13 31.2405 0.0302558 -0.0321237 1.7053e-13 -3.4 0 22.829 0.0099645 -0.0246752 0.25 -2.2 0.4 9.54166e-15 -3.18055e-15 6.36111e-15 0 -8.3 1 32.4233 1.89511 -1.47425 -2.84217e-14 -4.65 -2.27374e-13 48.3853 -0.0113879 -0.111391 0 -3.3 2.27374e-13 34.0616 -0.0390808 -0.0525841 0.5 -2.15 -0.8 9.54166e-15 -3.18055e-15 6.36111e-15 1.13687e-13 -7.75 -0.2 36.4561 2.6121 -2.72239 0 -3.8 -1.13687e-13 86.3558 -0.0207349 -0.040736 0 -3.4 0 80.1015 -0.0928581 0.0256046 0.75 -1.75 -1.85 9.54166e-15 -3.18055e-15 6.36111e-15 0 -7.15 -1 49.8707 -5.19215 -0.634086 0 -3 0 63.9164 -0.284077 -0.182882 2.27374e-13 -2.35 0 50.3491 -0.257691 0.126996 8 0 0 -20.681 -45.0962 -29.8669 1.7053e-13 -45 -1 -0.830524 29.1212 3.84346 1.13687e-13 -41 -2 5.2314 32.4048 -24.9765 0 -7.5 12.5 2.09001e-15 -8.92942 3.21957e-15 0 -8.88178e-16 4 -8.30637 5.91271 72.5056 -8 0 4.54747e-13 -28.6893 -43.2833 -39.4073 5.68434e-14 -45 -1 -0.296969 33.7898 1.27336 -1.13687e-13 -41 -2 3.06314 34.3221 -11.847 0 -7.5 12.5 1.60637e-15 -13.7631 -3.27458e-15 1.13687e-13 0 4 -7.92377 8.92692 63.1219 
-278.388 75.6704 1588.57 2.14842 4.05901 -179.969 5.68434e-14 8 0 10.4825 7.95249 -8.33132 8.52651e-14 8 -2.27374e-13 2.26061 6.58351 -2.11983 5.68434e-14 8 2.27374e-13 1.09723 3.30607 -1.02665 1.13687e-13 8 0 1.09497 3.2995 -1.02453 0 17 2.27374e-13 5.62606 4.21831 -6.82415 0 10.8 2.27374e-13 13.9849 8.73896 -16.684 5 17 2.27374e-13 1.25985 -0.778143 -2.25469 6.45 1.13687e-13 4.54747e-13 -0.394185 -0.757572 1.6523 6.45 0 4.54747e-13 53.8704 23.2251 0.157636 0 -32.4 -2 -60.7413 -71.9236 -75.6683 2.27374e-13 -25.65 2 -7.20632 -15.5356 -25.7561 -0.5 -1.5 2.65 -21.0631 -48.0828 127.342 0 -3.8 3.7 -0.00345285 44.063 -0.0283481 1.13687e-13 -3 2.7 0.153305 49.5359 -0.0417613 4.54747e-13 -1.9 1.6 6.36111e-15 -3.18055e-15 -1.59028e-15 -4.54747e-13 -8.3 1.9 -39.3022 11.1462 4.71395 0 -4.5 5.68434e-14 -83.1441 0.00332469 -0.000408772 -5.68434e-14 -3.4 0 -71.8363 0.000677936 0.00672526 -0.25 -2.2 0.4 6.36111e-15 -3.18055e-15 -1.59028e-15 0 -8.3 1 -49.5938 8.73882 5.96761 -2.27374e-13 -4.65 0 -77.3456 0.00271979 -0.0020785 8.52651e-14 -3.3 5.68434e-14 -90.0002 9.93923e-15 -3.4191e-14 -0.5 -2.15 -0.8 6.36111e-15 -3.18055e-15 -1.59028e-15 0 -7.75 -0.2 -79.8193 3.08365 12.1398 -2.27374e-13 -3.8 -2.84217e-14 -8.65895 0.101028 -0.087734 2.27374e-13 -3.4 2.84217e-14 -90.0002 -0.000610352 -5.4467e-14 -0.75 -1.75 -1.85 6.36111e-15 -3.18055e-15 -1.59028e-15 -2.27374e-13 -7.15 -1 -64.146 7.72014 10.0744 0 -3 -8.52651e-14 -61.9094 0.0886536 -0.00920215 0 -2.35 0 -90.0002 4.69132e-14 -1.43125e-14 -5 17 0 14.3316 -3.25908 1.17713 -6.45 0 -2.27374e-13 -1.76515 1.06876 -2.65356 -6.45 0 -2.27374e-13 -44.0337 8.52807 -21.4244 0 -32.4 -2 137.948 -77.0021 139.764 2.84217e-14 -25.65 2 -32.2292 -5.5189 23.9736 0.5 -1.5 2.65 21.4017 11.8358 8.85018 0 -3.8 3.7 1.89623 -1.88948 -0.535338 0 -3 2.7 0.268074 44.691 -0.153405 -2.27374e-13 -1.9 1.6 3.53113e-31 -6.36111e-15 3.18055e-15 0 -8.3 1.9 25.1159 6.09981 -1.6198 0 -4.5 0 30.1032 0.0636101 -0.0540083 1.7053e-13 -3.4 0 22.1441 0.0238566 -0.0443754 0.25 -2.2 0.4 3.53113e-31 -6.36111e-15 3.18055e-15 1.13687e-13 -8.3 1 33.3882 2.62138 -1.75201 1.42109e-14 -4.65 -2.27374e-13 43.5896 0.0833542 -0.242758 0 -3.3 1.13687e-13 30.8356 -0.0242437 -0.158671 0.5 -2.15 -0.8 3.53113e-31 -6.36111e-15 3.18055e-15 0 -7.75 -0.2 36.8961 3.6722 -3.17125 -1.42109e-14 -3.8 0 84.7369 -0.0103191 -0.107944 -2.27374e-13 -3.4 0 76.6173 -0.219073 -0.0368917 0.75 -1.75 -1.85 3.53113e-31 -6.36111e-15 3.18055e-15 1.13687e-13 -7.15 -1 52.1529 -5.12064 -0.838116 -1.13687e-13 -3 1.13687e-13 56.7213 -0.225302 -0.459625 0 -2.35 0 43.4712 -0.369298 -0.130127 8 0 -4.54747e-13 -20.681 -45.0962 -29.8669 1.7053e-13 -45 -1 -0.836973 29.106 3.88323 5.68434e-14 -41 -2 5.2314 32.4048 -24.9765 1.13687e-13 -7.5 12.5 -9.9947e-16 -8.92942 -6.43915e-15 1.13687e-13 -8.88178e-16 4 -8.32916 5.98166 72.5367 -8 0 2.27374e-13 -28.6893 -43.2833 -39.4073 0 -45 -1 -0.284099 33.6409 1.25511 1.13687e-13 -41 -2 3.06314 34.3221 -11.847 1.13687e-13 -7.5 12.5 5.53379e-15 -13.7631 6.54915e-15 0 0 4 -7.91535 8.92535 63.1092 
